<svg width="1176" height="588" viewBox="0 0 1176 588" fill="none" xmlns="http://www.w3.org/2000/svg">
<path d="M143.198 464.422L52.6455 307.622C47.8043 299.243 47.8043 288.904 52.6455 280.525L143.198 123.656C148.029 115.287 156.957 110.132 166.718 110.113H347.949C357.582 110.162 366.471 115.307 371.273 123.656L461.923 280.535C466.764 288.914 466.764 299.253 461.923 307.632L371.175 464.422C366.344 472.791 357.416 477.946 347.655 477.966H166.453C156.81 477.936 147.911 472.772 143.08 464.422H143.198Z" fill="#4386FA"/>
<path opacity="0.1" d="M313.766 243.373C313.766 243.373 338.952 303.761 304.623 338.002C270.293 372.243 207.799 350.321 207.799 350.321L334.934 477.946H347.841C357.504 477.926 366.431 472.772 371.361 464.402L431.317 360.581L313.766 243.373Z" fill="black"/>
<path d="M343.51 367.059L315.678 339.354C315.379 339.044 315.036 338.779 314.659 338.57C326.419 323.334 331.93 304.188 330.069 285.03C328.209 265.873 319.116 248.145 304.644 235.457C290.171 222.768 271.407 216.072 252.171 216.732C232.935 217.393 214.674 225.36 201.106 239.012C172.951 267.383 171.706 312.836 198.284 342.598C211.098 356.962 228.899 365.909 248.072 367.622C267.244 369.335 286.35 363.685 301.507 351.82C301.709 352.177 301.956 352.506 302.242 352.8L330.074 380.632C330.478 381.036 330.958 381.356 331.486 381.573C332.014 381.79 332.58 381.9 333.151 381.896C334.303 381.893 335.407 381.439 336.228 380.632L343.608 373.253C344.012 372.849 344.332 372.369 344.549 371.841C344.766 371.313 344.876 370.746 344.872 370.175C344.869 369.024 344.415 367.92 343.608 367.098L343.51 367.059ZM254.849 349.066C243.592 349.063 232.587 345.723 223.227 339.468C213.867 333.213 206.572 324.324 202.262 313.923C193.442 292.657 198.323 268.157 214.61 251.889C222.574 243.935 232.716 238.519 243.756 236.326C254.796 234.133 266.238 235.262 276.637 239.569C287.036 243.876 295.925 251.168 302.181 260.525C308.438 269.881 311.78 280.882 311.787 292.138C311.768 323.567 286.307 349.037 254.869 349.056L254.849 349.066ZM218.472 289.1V312.62C222.098 319.019 227.341 324.341 233.681 328.075V289.051L218.472 289.1ZM246.892 269.598V333.171C251.919 334.092 257.084 334.092 262.101 333.171V269.5L246.892 269.598ZM290.913 312.591V298.675H275.704V328.016C282.034 324.292 287.268 319 290.913 312.61V312.591Z" fill="white"/>
<path d="M681.982 191.649H613.284V212.052H662.107C659.677 240.708 635.843 252.918 613.382 252.918C599.123 253.016 585.403 247.43 575.26 237.405C565.117 227.38 559.384 213.718 559.344 199.459V198.538C559.099 184.093 564.676 170.157 574.809 159.877C584.942 149.597 598.799 143.805 613.244 143.854C626.994 143.874 640.194 149.225 650.073 158.799L664.381 144.07C650.511 130.673 631.888 123.334 612.607 123.666C553.586 122.425 516.294 186.655 546.634 237.297C560.692 260.726 586.37 274.667 613.676 273.694C653.699 273.616 683.256 246.107 683.256 205.408C683.343 200.858 682.922 196.312 682.001 191.855L681.982 191.649ZM738.498 176.919C712.117 176.373 690.319 197.38 689.89 223.763V224.792C689.733 251.546 711.303 273.361 738.057 273.518C764.811 273.675 786.626 252.105 786.783 225.351C786.783 193.403 761.695 176.919 738.596 176.919H738.498ZM738.763 195.931C752.649 195.931 765.713 206.986 765.713 225.39C765.713 243.795 752.6 254.633 738.616 254.633C723.23 254.633 711.176 242.383 711.176 225.175C711.176 207.966 723.024 196 738.645 196L738.763 195.931ZM843.74 176.919C817.416 176.455 795.709 197.438 795.279 223.763V224.792C795.123 251.546 816.692 273.361 843.446 273.518C870.2 273.675 892.015 252.105 892.172 225.351C892.172 193.501 867.055 176.968 843.789 176.968L843.74 176.919ZM844.034 195.931C857.921 195.931 870.984 206.986 870.984 225.39C870.984 243.795 857.872 254.633 843.887 254.633C828.501 254.633 816.447 242.383 816.447 225.175C816.447 207.966 828.296 196 843.907 196L844.034 195.931ZM947.13 176.919C921.356 176.919 900.845 199.597 900.845 225.135C900.453 251.007 920.817 272.469 946.689 273.42C956.883 273.954 966.715 269.57 973.13 261.631V271.166C973.13 287.826 963.036 297.822 947.797 297.822C936.84 297.685 927.07 290.884 923.12 280.672L904.696 288.336C911.233 302.222 924.365 316.873 947.914 316.873C973.688 316.873 993.386 300.635 993.386 266.599V179.869H973.14V187.974C966.479 180.704 956.987 176.672 947.13 176.919ZM949.012 195.735C961.713 195.735 974.786 206.594 974.786 225.194C974.786 243.795 961.752 254.251 948.718 254.251C934.831 254.251 922.062 243.197 922.062 225.243C922.062 206.819 935.429 195.784 949.061 195.784L949.012 195.735ZM1083.27 176.919C1058.82 176.919 1038.35 196.363 1038.35 225.086C1037.39 251.762 1058.97 273.799 1085.66 273.4C1101.83 273.475 1117 265.551 1126.17 252.232L1109.49 241.178C1104.59 249.508 1095.61 254.555 1085.97 254.437C1075.81 254.835 1066.45 248.997 1062.33 239.708L1126.99 212.905L1123.73 205.065C1117.36 188.327 1101.42 177.174 1083.52 176.939L1083.27 176.919ZM1084.12 195.343C1091.57 195.03 1098.53 199.048 1101.99 205.653L1058.7 223.783C1056.82 209.789 1070.07 195.422 1084.04 195.422L1084.12 195.343ZM1007.45 270.549H1028.69V128.419H1007.44L1007.45 270.549ZM540.009 434.209V341.04H573.741C580.799 340.893 587.629 343.542 592.743 348.41C597.956 352.967 600.877 359.601 600.7 366.54C601.137 375.061 596.037 382.894 588.068 385.944V386.463C592.645 387.894 596.663 390.746 599.515 394.597C602.371 398.41 603.884 403.063 603.817 407.827C603.993 415.05 601.014 421.988 595.653 426.839C590.212 431.781 583.068 434.422 575.72 434.209H540.107H540.009ZM551.965 352.526V381.112H573.692C577.692 381.223 581.558 379.664 584.364 376.81C589.871 371.518 590.087 362.796 584.854 357.259L584.481 356.887C581.816 354.064 578.082 352.496 574.211 352.575H552.132L551.965 352.526ZM551.965 392.265V422.841H576.073C584.54 422.919 591.479 416.137 591.577 407.651C591.592 403.613 589.935 399.75 587 396.978C583.976 393.944 579.836 392.289 575.554 392.402H551.936L551.965 392.265ZM630.786 348.488C630.759 357.717 618.051 360.196 614.558 351.653C611.018 343.115 621.817 335.928 628.327 342.49C629.944 344.058 630.835 346.234 630.796 348.498L630.786 348.488ZM628.317 370.577V434.277H616.312V370.577H628.317ZM671.437 464.481C668.046 464.51 664.577 464.05 661.421 463.109C658.41 462.298 655.532 461.057 652.876 459.424C650.368 457.776 648.13 455.749 646.241 453.417C644.438 451.221 643.036 448.713 642.086 446.047L653.522 441.343C654.753 444.992 657.133 448.145 660.304 450.33C663.538 452.584 667.409 453.76 671.358 453.72C677.042 454.044 682.599 451.927 686.607 447.86C690.459 443.401 692.428 437.619 692.095 431.729V425.438H691.576C689.271 428.858 686.108 431.613 682.403 433.425C678.503 435.385 674.2 436.394 669.859 436.365C661.607 436.404 653.758 432.837 648.358 426.604C642.47 419.952 639.301 411.328 639.479 402.447C639.256 393.583 642.417 384.966 648.319 378.349C653.679 372.037 661.549 368.411 669.82 368.451C674.179 368.422 678.483 369.434 682.374 371.4C686.079 373.212 689.242 375.967 691.546 379.387H692.066V370.44H703.512V431.494C704.002 440.383 700.866 449.085 694.79 455.582C688.543 461.517 680.164 464.676 671.554 464.344L671.437 464.481ZM671.848 425.408C677.372 425.557 682.671 423.219 686.284 419.038C694.06 409.359 694.06 395.574 686.284 385.895C682.707 381.651 677.395 379.26 671.848 379.378C666.311 379.299 661.019 381.69 657.413 385.895C653.326 390.471 651.308 396.508 651.553 402.496C651.301 408.556 653.401 414.479 657.413 419.028C661.039 423.203 666.311 425.575 671.848 425.496V425.408Z" fill="#767677"/>
<path d="M806.88 434.103L797.453 440.209L791.053 430.703C784.103 434.183 776.443 436.011 768.67 436.044C755.93 436.318 743.464 431.203 734.566 421.932C716.142 402.508 716.142 372.079 734.566 352.665C753.379 333.748 783.991 333.748 802.803 352.665C811.945 361.782 816.938 374.255 816.612 387.161C816.653 394.185 815.21 401.138 812.378 407.565C809.625 413.896 805.56 419.571 800.451 424.215L806.88 434.103ZM768.739 424.597C774.183 424.596 779.553 423.335 784.428 420.913L773.57 404.586L782.998 398.216L793.778 414.484C800.999 407.374 804.876 397.541 804.45 387.416C804.812 377.499 801.186 367.865 794.179 360.76C787.592 353.819 778.373 349.995 768.807 350.235C759.2 350.002 749.938 353.822 743.288 360.76C729.764 375.95 729.764 398.98 743.288 414.072C749.95 421.067 759.259 424.919 768.915 424.676L768.739 424.597ZM884.722 434.035H873.256V425.117H872.736C870.708 428.449 867.807 431.163 864.338 432.957C860.741 434.992 856.681 436.069 852.548 436.083C845.855 436.512 839.296 434.074 834.506 429.38C830.018 424.088 827.764 417.228 828.254 410.309V370.247H840.21V409.447C840.484 419.9 845.711 425.127 855.89 425.127C860.55 425.134 864.951 422.99 867.817 419.315C871.05 415.421 872.766 410.489 872.648 405.429V370.286H884.604V433.986L884.722 434.035ZM927.293 436.132C918.551 436.387 910.113 432.869 904.126 426.489C898.001 419.893 894.737 411.142 895.031 402.146C894.757 393.228 897.952 384.525 903.93 377.891C916.247 365.165 936.58 364.932 949.186 377.371C955.223 384.545 958.241 393.796 957.585 403.145V404.439H907.438C907.374 410.112 909.633 415.565 913.69 419.531C923.576 429.169 940.003 426.263 945.981 413.817L956.663 419.011C953.939 424.235 949.823 428.615 944.766 431.653C939.513 434.711 933.526 436.259 927.459 436.142L927.293 436.132ZM908.144 394.482H944.698C944.443 390.219 942.493 386.25 939.278 383.428C935.623 380.488 930.948 378.841 926.205 379.086C921.952 378.988 917.806 380.478 914.563 383.241C911.231 386.152 908.977 390.101 908.114 394.443L908.144 394.482ZM980.429 434.035H968.472V370.335H979.919V380.752H980.438C981.84 377.126 984.525 374.069 987.808 372.099C991.071 369.845 994.893 368.571 998.862 368.424C1001.89 368.352 1004.89 368.892 1007.7 370.011L1004.03 381.615C1001.77 380.846 999.38 380.533 997 380.693C992.453 380.713 988.151 382.712 985.211 386.181C981.967 389.627 980.174 394.189 980.203 398.921V434.103L980.429 434.035ZM1074.05 370.335L1034.16 462.406H1021.78L1036.51 430.262L1010.38 370.354H1023.41L1042.42 416.199H1042.69L1061.11 370.354H1074.05V370.335Z" fill="#767677"/>
</svg>
