<svg width="2309" height="1155" viewBox="0 0 2309 1155" fill="none" xmlns="http://www.w3.org/2000/svg">
<path d="M622.664 437.861L573.504 487.042C655.437 569.01 655.437 702.502 573.504 784.47C491.571 866.439 358.137 866.439 276.204 784.47C194.271 702.502 194.271 569.01 276.204 487.042L407.297 355.892L423.684 337.157V238.794L224.703 437.861C198.558 463.754 177.803 494.575 163.638 528.543C149.473 562.511 142.18 598.951 142.18 635.756C142.18 672.561 149.473 709.001 163.638 742.969C177.803 776.937 198.558 807.759 224.703 833.652C250.585 859.808 281.393 880.572 315.346 894.743C349.299 908.914 385.724 916.211 422.513 916.211C459.302 916.211 495.727 908.914 529.68 894.743C563.633 880.572 594.441 859.808 620.323 833.652C732.688 723.58 732.688 545.591 622.664 437.861Z" fill="#EE4C2C"/>
<path d="M524.344 423.809C545.03 423.809 561.799 407.033 561.799 386.338C561.799 365.643 545.03 348.866 524.344 348.866C503.658 348.866 486.889 365.643 486.889 386.338C486.889 407.033 503.658 423.809 524.344 423.809Z" fill="#EE4C2C"/>
<path d="M923.754 616.539H885.271V715.561H856.543V434.472H926.775C1001.28 434.472 1036.39 470.662 1036.39 523.022C1036.39 584.776 992.755 615.653 923.581 616.712L923.754 616.539ZM925.678 461.095H884.347V589.935L924.793 588.877C978.015 587.818 1006.76 566.508 1006.76 522.849C1006.76 483.464 979.093 461.095 925.87 461.095H925.678ZM1166.43 714.483L1149.4 759.201C1130.24 809.251 1110.92 824.15 1082.34 824.15C1066.37 824.15 1054.67 819.915 1041.9 814.564L1050.4 789.019C1059.98 794.351 1070.61 797.527 1082.34 797.527C1098.31 797.527 1110.01 789.019 1124.91 749.402L1138.76 713.212L1058.95 509.855H1088.77L1153.69 680.218L1217.57 509.855H1246.3L1166.43 714.483ZM1342.01 462.154V716.639H1313.28V462.154H1214.3V434.472H1440.97V461.095H1341.99L1342.01 462.154ZM1521.86 721.933C1464.39 721.933 1421.81 679.352 1421.81 613.324C1421.81 547.297 1465.45 503.657 1523.79 503.657C1581.26 503.657 1622.77 546.238 1622.77 612.265C1622.77 678.293 1579.13 721.933 1521.65 721.933H1521.86ZM1522.92 529.433C1479.28 529.433 1450.57 564.564 1450.57 612.477C1450.57 662.527 1480.4 696.6 1524 696.6C1567.6 696.6 1596.35 661.468 1596.35 613.555C1596.35 563.505 1566.52 529.433 1522.92 529.433ZM1694.29 716.62H1666.62V510.067L1694.29 504.735V548.394C1708.14 521.771 1728.34 504.735 1754.96 504.735C1767.63 504.84 1780.07 508.137 1791.13 514.321L1783.7 540.925C1775.2 535.593 1763.5 532.416 1751.76 532.416C1730.48 532.416 1710.26 548.394 1693.23 585.662V716.62H1694.29ZM1900.75 721.933C1839.02 721.933 1799.63 677.215 1799.63 613.324C1799.63 548.375 1842.2 503.657 1900.75 503.657C1926.28 503.657 1947.58 510.048 1965.67 521.752L1958.22 547.297C1942.25 536.651 1923.11 530.26 1900.75 530.26C1856.05 530.26 1828.4 563.274 1828.4 612.265C1828.4 662.315 1858.23 695.31 1901.83 695.31C1922.22 695.216 1942.15 689.306 1959.3 678.274L1964.63 703.818C1946.54 715.522 1924.19 721.933 1900.75 721.933ZM2138.08 716.62V583.525C2138.08 547.335 2123.18 531.55 2094.44 531.55C2071.02 531.55 2047.6 543.254 2030.55 561.388V717.89H2002.88V413.355L2030.55 408.023V537.922C2051.84 516.631 2079.5 504.908 2101.86 504.908C2142.31 504.908 2166.78 530.453 2166.78 575.171V716.774L2138.08 716.62Z" fill="white"/>
</svg>
