<svg width="1306" height="653" viewBox="0 0 1306 653" fill="none" xmlns="http://www.w3.org/2000/svg">
<path d="M194.072 339.049L238.258 313.407L281.792 339.049L238.258 364.145L194.072 339.593V339.049ZM61.4912 263.213L238.345 162.815L369.816 237.561L326.283 313.396L238.454 263.203L105.895 338.493L61.4912 263.213Z" fill="#F6BD3A"/>
<path d="M194.072 439.425V389.231L237.605 364.135L281.792 339.038V389.231L238.258 414.328V464.522L194.072 490.163V439.425ZM194.072 339.048L149.886 313.951L105.699 338.504V288.299L238.258 213.009V313.396L194.072 339.048ZM325.543 288.31V263.213L369.729 237.572L370.273 287.766L326.087 313.407L325.543 288.31Z" fill="#EB8C23"/>
<path d="M149.864 463.434V313.952L193.397 289.399L193.941 339.049L238.128 363.601V414.339L193.941 390.875V490.164L149.864 463.434ZM83.3232 325.412L61.4912 312.319V263.235L105.678 288.332V338.526L83.3232 325.412ZM238.258 263.213V213.02L325.543 263.213L326.087 313.407L238.258 263.213Z" fill="#E35A2B"/>
<path d="M455.196 280.551V395.914H434.92V280.551H395.522V260.656H494.561V280.54L455.196 280.551ZM561.689 322.451C562.93 327.469 563.483 332.631 563.333 337.797L497.913 357.191C498.424 362.089 498.283 360.097 499.817 363.58C501.352 367.062 503.3 369.914 505.607 372.286C507.915 374.659 510.505 376.204 513.226 377.293C515.947 378.381 519.07 378.947 522.107 378.925C526.46 378.925 530.247 378.218 533.784 376.803C537.486 375.293 540.962 373.278 544.113 370.817L555.888 383.55C551.534 387.754 546.423 391.096 540.826 393.4C535.275 395.718 528.658 396.883 520.942 396.883C515.132 396.906 509.381 395.724 504.051 393.411C498.609 391.093 494.038 387.686 490.055 383.18C486.072 378.675 482.916 373.146 480.587 366.572C478.258 359.999 477.104 352.424 477.104 344.175C477.104 335.555 478.192 327.85 480.391 321.396C482.589 314.942 485.615 309.424 489.467 304.886C493.29 300.475 498.08 297.007 503.463 294.753C509.185 292.388 515.328 291.207 521.519 291.282C528.724 291.282 535.014 292.631 540.347 295.341C545.68 298.051 550.142 301.719 553.668 306.224C557.336 311.104 560.023 316.648 561.58 322.549L561.689 322.451ZM542.676 327.022C542.415 323.54 540.02 319.404 538.04 316.651C536.173 314.191 533.671 312.287 530.802 311.144C527.842 309.968 523.815 309.479 520.278 309.62C513.748 309.914 506.13 312.21 502.517 317.238C498.903 322.266 497.761 330.984 497.902 340.278L542.676 327.022ZM635.152 394.651V337.296C635.152 327.001 633.302 319.883 629.645 315.671C625.988 311.459 620.862 309.489 614.408 309.489C607.715 309.489 602.567 311.742 598.954 316.237C595.34 320.732 593.545 327.12 593.545 335.348V394.619H573.552V293.295H593.436V302.949C596.015 299.216 599.585 296.419 604.156 294.264C608.727 292.109 613.646 291.173 618.925 291.173C630.766 291.173 639.744 294.982 645.861 302.568C651.977 310.153 655.036 321.505 655.036 336.545V394.662L635.152 394.651ZM736.715 368.009C736.715 373.668 735.648 378.403 733.526 382.201C731.505 385.891 728.623 389.039 725.124 391.376C721.642 393.694 717.506 395.37 713.153 396.382C708.429 397.429 703.603 397.947 698.765 397.927C691.799 397.927 684.899 396.708 678.01 394.26C671.579 392.049 665.499 388.926 659.955 384.987L668.923 370.033C673.447 373.259 678.424 375.797 683.691 377.565C688.774 379.241 693.704 380.068 698.46 380.068C710.813 380.068 716.994 376.335 716.994 368.858C716.994 364.994 714.905 361.893 710.726 359.607C706.546 357.322 700.778 354.71 693.443 351.989C688.697 350.236 684.085 348.141 679.643 345.72C675.855 343.587 672.754 341.312 670.37 338.864C668.071 336.546 666.323 333.742 665.255 330.657C664.221 327.632 663.71 324.127 663.71 320.133C663.71 315.628 664.548 311.644 666.213 308.162C667.851 304.729 670.302 301.748 673.352 299.477C676.443 297.159 680.1 295.417 684.236 294.253C688.371 293.088 693.116 292.511 698.134 292.511C704.664 292.511 710.78 293.545 716.766 295.602C722.752 297.659 727.997 300.369 732.503 303.71L723.96 318.882C719.846 315.921 715.656 313.734 711.411 312.319C707.167 310.904 702.705 310.197 697.698 310.197C692.692 310.197 689.264 311.067 687.076 312.809C686.04 313.58 685.203 314.586 684.631 315.744C684.06 316.901 683.771 318.178 683.789 319.469C683.778 320.702 684.042 321.922 684.562 323.039C685.074 324.127 686.042 325.259 687.457 326.304C689.227 327.687 691.134 328.883 693.149 329.874C696.205 331.397 699.328 332.78 702.509 334.02L717.375 340.3C721.241 342.052 724.848 344.326 728.095 347.059C730.9 349.447 733.113 352.454 734.56 355.841C735.975 359.183 736.682 363.242 736.682 368.009H736.715ZM829.202 344.643C829.202 353.023 828.048 360.51 825.719 367.138C823.39 373.766 820.277 379.371 816.065 383.931C812.059 388.421 807.118 391.98 801.591 394.358C796.149 396.752 790.011 397.927 783.437 397.927C776.907 397.927 771.084 396.676 765.675 394.162C760.264 391.639 755.458 387.983 751.582 383.442C747.587 378.816 744.475 373.277 742.222 366.834C739.969 360.391 738.957 353.186 738.957 345.208C738.957 336.97 740.111 329.569 742.44 323.007C744.769 316.444 747.947 310.872 751.995 306.301C755.907 301.787 760.793 298.222 766.285 295.874C771.868 293.502 777.713 292.305 784.134 292.305C790.321 292.253 796.446 293.537 802.091 296.07C807.568 298.537 812.469 302.122 816.479 306.594C820.538 311.1 823.684 316.607 825.947 323.104C828.211 329.602 829.212 336.785 829.212 344.632L829.202 344.643ZM809.122 345.219C809.122 334.793 806.945 326.522 802.265 320.405C797.585 314.289 791.36 311.231 783.252 311.231C779.741 311.109 776.257 311.888 773.133 313.494C770.008 315.1 767.347 317.479 765.403 320.405C761.105 326.533 758.939 334.597 758.939 344.643C758.939 355.852 761.257 364.363 765.904 370.218C768.04 373.037 770.819 375.305 774.009 376.833C777.199 378.36 780.707 379.104 784.242 379.001C787.975 379.001 791.382 378.098 794.473 376.302C797.59 374.473 800.286 372.007 802.385 369.065C804.678 365.816 806.377 362.187 807.402 358.345C808.556 354.231 809.144 349.856 809.144 345.219H809.122ZM893.304 315.486C891.156 314.345 888.89 313.44 886.546 312.787C884.228 312.134 881.398 311.699 878.057 311.699C871.744 311.699 866.847 313.875 863.386 318.261C859.925 322.647 858.162 329.145 858.162 337.764V395.685H838.278V294.318H858.162V303.972C860.654 300.469 863.925 297.592 867.718 295.57C871.889 293.289 876.579 292.126 881.333 292.196C885.447 292.196 888.951 292.555 891.454 293.262C893.965 293.92 896.346 294.998 898.496 296.451L893.272 315.388L893.304 315.486Z" fill="#EF6639"/>
<path d="M926.694 280.551V315.889H965.504V335.773H926.694V395.816H906.418V260.656H993.485V280.54L926.694 280.551ZM996.782 395.805V265.488L1016.67 255.062V395.827L996.782 395.805ZM1118.24 344.653C1118.24 353.034 1117.08 360.521 1114.76 367.149C1112.44 373.777 1109.21 379.382 1105.1 383.942C1101.09 388.433 1096.15 391.992 1090.62 394.368C1085.07 396.763 1079.04 397.938 1072.46 397.938C1066.04 397.938 1060.11 396.687 1054.7 394.173C1049.29 391.658 1044.6 388.078 1040.61 383.452C1036.62 378.827 1033.5 373.287 1031.25 366.844C1029 360.402 1027.98 353.197 1027.98 345.219C1027.98 336.981 1029.14 329.58 1031.47 323.017C1033.8 316.455 1036.97 310.882 1041.02 306.311C1045.07 301.74 1049.73 298.258 1055.31 295.885C1060.9 293.513 1066.74 292.315 1073.16 292.315C1079.58 292.315 1085.57 293.567 1091.12 296.081C1096.6 298.548 1101.5 302.133 1105.51 306.605C1109.57 311.111 1112.71 316.618 1114.98 323.115C1117.24 329.613 1118.24 336.806 1118.24 344.653ZM1098.16 345.23C1098.16 334.804 1095.98 326.533 1091.3 320.416C1086.62 314.3 1080.4 311.242 1072.29 311.242C1064.69 311.242 1058.74 314.289 1054.44 320.416C1050.14 326.543 1047.98 334.608 1047.98 344.653C1047.98 355.863 1050.3 364.374 1054.94 370.229C1057.08 373.048 1059.86 375.316 1063.05 376.843C1066.24 378.371 1069.75 379.115 1073.28 379.012C1076.87 379.051 1080.41 378.119 1083.51 376.313C1086.63 374.484 1089.32 372.018 1091.42 369.076C1093.6 366.05 1095.29 362.48 1096.43 358.355C1097.57 354.231 1098.16 349.866 1098.16 345.23ZM1216.32 395.816H1199.34L1185.63 344.664L1182.64 332.801L1180.42 323.05L1178.2 332.899L1175.2 344.871L1161.69 395.849H1144.71L1116.9 294.481H1136.49L1148.46 343.717L1151.36 355.885L1153.48 365.93L1155.98 355.885L1159.07 343.717L1172.59 294.481H1188.62L1202.34 343.913L1205.33 355.994L1207.74 365.941L1209.97 355.82L1212.76 343.739L1224.73 294.503H1244.32L1216.32 395.816Z" fill="#A6A7A9"/>
</svg>
