<svg width="1506" height="254" viewBox="0 0 1506 254" fill="none" xmlns="http://www.w3.org/2000/svg">
<g clip-path="url(#clip0_47_2)">
<path d="M387.722 68.6996C384.468 68.6875 381.244 69.3199 378.236 70.5602C375.228 71.8005 372.496 73.6243 370.197 75.9259L351.348 94.7093C348.831 97.2222 346.888 100.249 345.651 103.583C344.415 106.917 343.914 110.478 344.185 114.023L344.303 115.215C344.945 120.687 347.429 125.779 351.348 129.655C354.065 132.363 357.057 134.08 360.692 135.271C360.879 136.364 360.985 137.468 360.985 138.579C360.985 143.552 359.049 148.226 355.527 151.727L354.365 152.888C348.069 150.741 342.823 147.602 338.083 142.878C331.813 136.66 327.611 128.664 326.047 119.976L325.835 118.772L324.88 119.546C324.238 120.064 323.625 120.616 323.043 121.2L304.194 139.983C300.73 143.439 298.372 147.845 297.417 152.642C296.463 157.44 296.956 162.412 298.834 166.929C300.712 171.446 303.891 175.304 307.966 178.013C312.041 180.723 316.83 182.162 321.726 182.149C324.979 182.155 328.202 181.521 331.209 180.281C334.216 179.04 336.949 177.22 339.251 174.922L358.106 156.139C360.403 153.845 362.225 151.122 363.468 148.124C364.711 145.127 365.351 141.914 365.351 138.669C365.351 135.425 364.711 132.212 363.468 129.214C362.225 126.217 360.403 123.493 358.106 121.2C355.527 118.632 352.407 116.671 348.975 115.458C348.434 112.244 348.676 108.947 349.681 105.846C350.685 102.744 352.423 99.9306 354.746 97.6423C361.014 99.7615 366.708 103.298 371.384 107.976C377.646 114.2 381.845 122.194 383.413 130.878L383.632 132.083L384.587 131.309C385.237 130.791 385.849 130.229 386.436 129.643L405.285 110.859C408.75 107.404 411.11 102.997 412.064 98.1995C413.019 93.4016 412.525 88.4286 410.646 83.9115C408.767 79.3944 405.587 75.5369 401.51 72.8285C397.433 70.1202 392.643 68.6831 387.747 68.6996H387.722Z" fill="white"/>
<path d="M377.624 0.00624034H130.987C60.6993 0.00624034 3.53369 56.9804 3.53369 127.003C3.53369 197.032 60.7055 254 130.98 254H377.617C447.899 254 505.07 197.026 505.07 127.009C505.07 56.9679 447.899 0 377.624 0V0.00624034ZM255.973 199.116C251.907 199.953 247.329 200.102 244.219 196.87C243.076 199.491 240.396 198.112 238.329 197.768C238.142 198.299 237.973 198.767 237.798 199.304C230.928 199.759 225.776 192.776 222.503 187.509C216.007 184.002 208.625 181.868 201.986 178.199C201.599 184.239 202.923 191.74 197.152 195.634C196.859 207.254 214.79 197.007 216.438 205.669C215.164 205.806 213.753 205.463 212.729 206.442C208.051 210.973 202.686 203.01 197.296 206.299C190.051 209.931 189.326 212.907 180.37 213.656C179.871 212.907 180.077 212.408 180.495 211.953C183.018 209.032 183.2 205.588 187.503 204.34C183.068 203.647 179.365 206.087 175.63 208.021C170.771 209.999 170.808 203.547 163.339 208.358C162.514 207.684 162.908 207.073 163.382 206.555C165.281 204.246 167.779 203.903 170.596 204.027C156.737 196.333 150.217 213.438 143.815 204.932C141.891 205.438 141.167 207.166 139.955 208.383C138.912 207.241 139.706 205.856 139.749 204.514C138.5 203.928 136.92 203.647 137.288 201.65C134.846 200.826 133.135 202.274 131.312 203.647C129.669 202.38 132.423 200.527 132.935 199.204C134.397 196.664 137.738 198.68 139.431 196.851C144.252 194.124 150.966 198.555 156.475 197.806C160.722 198.336 165.968 193.999 163.838 189.662C159.304 183.884 160.104 176.327 160.004 169.419C159.441 165.394 149.742 160.264 146.938 155.921C143.472 152.008 140.774 147.478 138.069 143.016C128.32 124.207 131.386 100.045 119.101 82.5782C113.543 85.636 106.311 84.1945 101.514 80.0884C98.9283 82.441 98.8159 85.5174 98.6098 88.7749C92.4017 82.597 93.1761 70.9088 98.1414 64.0257C100.158 61.3686 102.567 59.033 105.286 57.099C105.898 56.6622 106.104 56.2253 106.092 55.5389C111.001 33.548 144.465 37.7852 155.045 53.3673C162.72 62.9587 165.037 75.6452 173.744 84.5502C185.454 97.3241 198.801 108.575 209.606 122.179C219.83 134.61 227.131 149.187 233.501 163.883C236.099 168.763 236.124 174.742 239.978 178.91C241.877 181.425 251.157 188.271 249.14 190.692C250.302 193.207 258.964 196.676 255.96 199.116H255.973ZM418.52 124.083L399.671 142.866C394.655 147.87 388.491 151.572 381.715 153.649L381.365 153.749L381.24 154.08C379.072 159.817 375.696 165.022 371.341 169.344L352.485 188.127C348.444 192.171 343.642 195.375 338.355 197.554C333.068 199.734 327.401 200.846 321.682 200.826C315.963 200.846 310.297 199.734 305.01 197.554C299.723 195.375 294.92 192.171 290.879 188.127C286.84 184.099 283.635 179.314 281.449 174.047C279.262 168.78 278.137 163.133 278.137 157.431C278.137 151.729 279.262 146.082 281.449 140.815C283.635 135.548 286.84 130.763 290.879 126.735L309.728 107.951C314.73 102.952 320.889 99.2626 327.659 97.2118L328.003 97.1057L328.128 96.775C330.31 91.023 333.696 85.8022 338.058 81.4612L356.913 62.6778C360.955 58.6342 365.757 55.4302 371.044 53.2506C376.331 51.071 381.997 49.959 387.717 49.9788C399.364 49.9788 410.3 54.4905 418.52 62.6778C422.574 66.6963 425.788 71.48 427.975 76.7508C430.163 82.0216 431.279 87.6743 431.261 93.3802C431.261 104.987 426.739 115.889 418.52 124.07V124.083Z" fill="white"/>
<path d="M179.296 176.383C177.641 182.81 177.11 193.743 168.716 194.055C168.029 197.768 171.295 199.166 174.275 197.968C177.223 196.626 178.622 199.035 179.615 201.438C184.168 202.099 190.894 199.927 191.15 194.555C184.355 190.654 182.256 183.241 179.309 176.37L179.296 176.383ZM623.149 66.5717H600.759V202.274H696.79V180.657H623.149V66.5717ZM809.341 202.274H831.732V202.037H832.025L832.069 201.038C832.075 200.745 832.156 198.03 831.744 193.849V143.34C831.744 124.338 845.609 115.696 858.494 115.696C872.353 115.696 879.098 123.153 879.098 138.516V202.274H901.488V135.534C901.488 110.185 885.368 94.4348 859.431 94.4348C848.407 94.4348 838.57 97.5674 830.845 103.508L830.639 96.2944H809.372V202.274H809.341ZM992.611 104.082C984.829 97.7671 974.824 94.4348 963.538 94.4348C933.347 94.4348 914.591 115.24 914.591 148.726C914.591 182.211 933.347 203.204 963.538 203.204C974.186 203.204 983.692 200.302 991.181 194.792C990.537 211.216 980.238 220.976 963.357 220.976C949.161 220.976 941.129 216.458 939.48 207.559L939.274 206.449L917.521 213.082L917.714 213.974C921.387 231.666 937.956 242.231 962.058 242.231C978.409 242.231 991.231 237.781 1000.18 229.001C1009.21 220.152 1013.78 207.397 1013.78 191.104V96.2944H993.073L992.623 104.082H992.611ZM991.212 149.655C991.212 169.874 981.356 181.955 964.837 181.955C947.131 181.955 936.982 169.849 936.982 148.732C936.982 127.621 947.137 115.689 964.837 115.689C980.957 115.689 991.049 127.708 991.212 147.053V149.662V149.655ZM1124.1 159.241C1119.46 174.242 1107.54 182.511 1090.55 182.511C1066.26 182.511 1051.16 164.083 1051.16 134.417C1051.16 104.756 1066.4 86.3286 1090.93 86.3286C1107.9 86.3286 1117.68 92.9745 1122.66 107.876L1124.99 114.847L1146.13 104.925L1144.14 99.3459C1136.09 76.681 1117.5 64.7121 1090.37 64.7121C1071.94 64.7121 1056.3 71.358 1045.12 83.9323C1034.07 96.388 1028.22 113.836 1028.22 134.429C1028.22 176.776 1052.68 204.146 1090.55 204.146C1117.24 204.146 1137.91 190.193 1145.85 166.816L1147.87 160.844L1126.15 152.595L1124.09 159.253L1124.1 159.241ZM1207.71 94.4348C1197.02 94.4348 1187.51 97.3677 1180.04 102.922V53.5731H1157.65V202.293H1180.04V143.353C1180.04 124.232 1193.9 115.521 1206.79 115.521C1220.65 115.521 1227.39 122.984 1227.39 138.342V202.299H1249.78V135.365C1249.78 110.51 1233.28 94.4535 1207.73 94.4535L1207.71 94.4348ZM1380.65 50.3718C1372.33 50.3718 1366.29 56.4062 1366.29 64.7121C1366.29 73.0242 1372.33 79.0586 1380.65 79.0586C1388.97 79.0586 1395.01 73.0242 1395.01 64.7121C1395.01 56.4062 1388.97 50.3718 1380.65 50.3718ZM1460.38 94.4348C1449.36 94.4348 1439.53 97.5674 1431.8 103.508L1431.59 96.2944H1410.33V202.274H1432.72V143.34C1432.72 124.338 1446.58 115.696 1459.47 115.696C1473.33 115.696 1480.08 123.153 1480.08 138.516V202.274H1502.47V135.534C1502.47 110.185 1486.35 94.4348 1460.41 94.4348H1460.38ZM1391.53 96.3006H1369.25V148.832C1363.07 143.646 1355.78 139.721 1347.56 137.156V131.814C1347.56 108.413 1332.19 94.4348 1306.42 94.4348C1285.5 94.4348 1269.84 104.257 1263.47 121.362L1261.75 125.98L1279.7 139.197L1282.78 131.178C1286.84 120.607 1294.36 115.683 1306.42 115.683C1318.5 115.683 1325.17 121.487 1325.17 132.919V133.518C1324.45 133.487 1323.73 133.466 1323.01 133.456C1299.04 133.075 1281.55 138.672 1271.03 150.08C1260.27 161.749 1261.21 174.854 1261.36 176.302L1261.46 177.313H1261.56C1263.23 193.637 1277.5 204.115 1298.24 204.115C1309.67 204.115 1320.22 200.938 1328.2 195.129L1328.29 202.268H1347.56V169.113L1347.15 168.813C1344.42 166.816 1339.67 164.245 1332.52 163.34C1330.41 163.061 1328.29 162.934 1326.16 162.96H1325.16V166.005C1325.16 173.013 1317.1 182.885 1299.16 182.885C1285.92 182.885 1283.95 177.319 1283.95 173.999V173.662C1284.05 172.171 1284.67 168.526 1287.96 165.138C1292.14 160.826 1301.55 155.777 1322.64 156.095C1337.91 156.339 1349.63 160.601 1357.47 168.782C1367.09 178.816 1368.91 192.558 1369.24 197.943V202.274H1391.51V96.3006H1391.53ZM751.451 93.973C730.522 93.973 714.871 103.789 708.494 120.9L706.777 125.518L724.727 138.735L727.806 130.716C731.865 120.145 739.385 115.215 751.451 115.215C763.524 115.215 770.2 121.019 770.2 132.457V135.14L747.142 139.209C720.111 143.983 706.402 155.534 706.402 173.518C706.402 191.503 720.867 203.659 743.257 203.659C754.686 203.659 765.235 200.477 773.217 194.673L773.311 201.806H792.578V131.353C792.578 107.945 777.208 93.973 751.451 93.973ZM770.2 156.108V165.55C770.2 172.564 762.131 182.43 744.194 182.43C730.953 182.43 728.986 176.869 728.986 173.55C728.986 170.598 728.986 163.702 752.438 159.353L770.2 156.108Z" fill="white"/>
</g>
<defs>
<clipPath id="clip0_47_2">
<rect width="1506" height="254" fill="white"/>
</clipPath>
</defs>
</svg>
