<svg width="1154" height="577" viewBox="0 0 1154 577" fill="none" xmlns="http://www.w3.org/2000/svg">
<path d="M190.087 277.546C172.838 267.588 159.357 252.215 151.735 233.814C144.113 215.412 142.776 195.01 147.931 175.771C153.086 156.532 164.445 139.532 180.247 127.407C196.049 115.281 215.41 108.709 235.327 108.709C255.245 108.709 274.606 115.281 290.408 127.407C306.209 139.532 317.569 156.532 322.724 175.771C327.879 195.01 326.542 215.412 318.919 233.814C311.297 252.215 297.816 267.588 280.567 277.546L253.325 230.362C260.187 226.4 265.551 220.284 268.583 212.964C271.615 205.643 272.147 197.526 270.096 189.872C268.046 182.219 263.527 175.455 257.24 170.632C250.954 165.808 243.251 163.193 235.328 163.193C227.404 163.193 219.701 165.808 213.415 170.632C207.129 175.455 202.61 182.219 200.559 189.872C198.508 197.526 199.04 205.643 202.072 212.964C205.104 220.284 210.468 226.4 217.33 230.362L190.087 277.546Z" fill="#FF0101"/>
<path d="M383.845 299.454C401.094 309.413 414.575 324.786 422.198 343.187C429.82 361.589 431.157 381.991 426.002 401.23C420.847 420.469 409.488 437.469 393.686 449.594C377.884 461.719 358.523 468.292 338.605 468.292C318.688 468.292 299.327 461.719 283.525 449.594C267.723 437.469 256.364 420.469 251.209 401.23C246.054 381.991 247.391 361.589 255.013 343.187C262.635 324.786 276.116 309.413 293.366 299.454L320.607 346.639C313.745 350.601 308.382 356.717 305.35 364.037C302.317 371.358 301.785 379.475 303.836 387.128C305.887 394.782 310.406 401.546 316.692 406.369C322.979 411.193 330.681 413.808 338.605 413.808C346.529 413.808 354.231 411.193 360.518 406.369C366.804 401.546 371.323 394.782 373.374 387.128C375.425 379.475 374.893 371.358 371.86 364.037C368.828 356.717 363.465 350.601 356.603 346.639L383.845 299.454Z" fill="#0101FF"/>
<path d="M224.484 377.808C224.484 397.726 217.911 417.087 205.786 432.889C193.661 448.691 176.66 460.051 157.421 465.206C138.182 470.361 117.779 469.024 99.3775 461.402C80.9757 453.779 65.6032 440.298 55.6443 423.049C45.6853 405.799 41.6964 385.746 44.2961 365.998C46.8959 346.251 55.9391 327.913 70.0232 313.829C84.1072 299.745 102.445 290.701 122.193 288.102C141.94 285.502 161.994 289.491 179.243 299.45L152 346.635C145.138 342.673 137.16 341.086 129.304 342.12C121.448 343.154 114.153 346.752 108.55 352.355C102.947 357.958 99.3489 365.254 98.3146 373.11C97.2803 380.966 98.8672 388.944 102.829 395.806C106.791 402.668 112.907 408.032 120.228 411.064C127.548 414.096 135.665 414.628 143.319 412.577C150.973 410.526 157.736 406.007 162.56 399.721C167.384 393.434 169.998 385.732 169.998 377.808L224.484 377.808Z" fill="#01FF01"/>
<path fill-rule="evenodd" clip-rule="evenodd" d="M503.946 206.699C516.758 205.546 529.738 205.556 542.5 207.389C550.365 208.769 558.713 210.819 564.616 216.555C570.805 223.453 572.333 233.063 573.683 241.903C575.911 260.254 575.654 278.861 573.683 297.232C572.363 306.102 571.072 315.879 565.207 323.172C558.801 329.676 549.439 331.529 540.569 332.899C527.757 334.496 514.747 334.87 501.886 333.589C493.174 332.603 484.077 331.164 476.656 326.197C471.856 323.241 469.284 317.781 467.529 312.567C464.011 301.706 463.568 290.175 463.094 278.861C463.035 263.91 463.321 248.802 466.248 234.117C467.825 227.248 469.737 219.699 475.542 215.126C483.722 209.193 494.1 207.763 503.886 206.748L503.946 206.699ZM506.065 227.199C516.935 226.331 528.042 226.065 538.785 228.184C542.954 229.022 547.872 231.141 548.64 235.793C551.893 249.137 551.144 263.043 551.272 276.693C550.878 286.401 551.094 296.424 547.842 305.717C545.004 311.828 537.267 312.321 531.433 313.208C519.734 313.868 507.582 314.459 496.248 310.99C491.025 309.61 489.35 304.091 488.561 299.282C486.393 285.326 487.083 271.125 487.378 257.061C487.97 249.176 487.871 240.996 490.7 233.408C493.952 228.48 500.674 227.938 506.074 227.12L506.065 227.199ZM620.664 249.206C628.549 244.258 638.129 243.45 647.117 244.278C655.494 244.998 664.817 247.846 669.311 255.573C674.673 265.27 674.978 276.723 675.353 287.534C675.116 298.651 674.909 310.261 670.425 320.599C667.803 326.877 661.772 330.987 655.326 332.623C645.451 335.048 634.59 335.314 625.07 331.371C619.925 329.361 616.367 324.985 613.421 320.501V371.316H591.561V245.136H612.672L612.08 258.125C614.692 254.942 617.008 251.423 620.684 249.236L620.664 249.206ZM627.76 260.56C633.851 260.096 640.297 259.968 645.993 262.471C649.6 264.029 651.512 267.843 652.153 271.539C654.045 281.079 653.809 290.934 653.138 300.593C652.468 306.427 651.532 313.976 645.106 316.233C637.685 318.658 629.219 318.815 621.887 315.977C615.067 313.02 614.268 304.84 613.608 298.434C613.214 288.598 612.622 278.487 615.579 268.927C617.057 263.506 622.675 261.042 627.859 260.55L627.76 260.56ZM701.381 249.275C712.074 243.785 724.601 243.588 736.339 244.15C746.194 244.968 757.962 246.594 763.343 255.947C769.414 267.232 768.428 280.586 769.276 292.886H709.749C710.438 299.272 709.62 306.161 712.843 312.005C715.603 316.637 721.437 317.574 726.375 317.85C732.485 317.889 739.049 318.392 744.677 315.553C747.899 313.03 747.929 308.654 748.323 304.85H769.217C768.961 312.114 768.034 320.254 762.19 325.369C753.32 333.224 740.902 334.042 729.696 334.259C719.811 333.963 709.364 333.471 700.504 328.592C693.339 324.354 691.043 315.78 689.791 307.896C688.195 296.512 687.79 284.932 689.151 273.401C690.264 264.383 692.699 253.69 701.371 249.088L701.381 249.275ZM714.193 263.122C720.136 259.515 727.498 260.234 734.161 260.333C738.3 260.776 743.326 261.023 746.017 264.669C748.757 269.183 748.284 274.722 748.284 279.778C735.472 279.797 722.689 279.837 709.887 279.768C710.084 274.131 709.64 267.251 714.184 263.014L714.193 263.122ZM815.705 249.324C823.235 244.101 832.952 243.371 841.822 244.396C849.362 245.185 857.345 248.063 861.8 254.567C865.742 259.968 866.846 266.837 866.905 273.293L866.895 333.136H846.129L846.1 276.535C845.903 272.416 846.06 267.646 842.946 264.472C839.634 260.895 834.45 260.195 829.838 260.234C824.25 260.205 818.209 261.161 813.892 265.024C809.684 268.611 807.978 274.407 808.057 279.758L808.038 333.145H787.39V245.136H807.693L807.003 260.569C809.22 256.4 811.536 251.995 815.617 249.354L815.705 249.324ZM904.208 210.622C915.611 206.679 927.861 206.246 939.688 205.822C951.238 205.881 963.321 205.99 974.113 210.75C979.593 213.036 983.397 218.043 985.25 223.562C988.266 231.821 988.354 240.76 988.404 249.452C980.45 249.452 972.497 249.472 964.553 249.442C964.425 243.332 964.888 236.473 961.104 231.279C957.162 227.366 951.288 227.376 946.32 226.775C935.972 226.578 925.23 225.917 915.325 229.485C911.757 230.618 909.904 234.186 909.185 237.626C907.155 246.85 907.135 256.371 907.155 265.783C907.273 278.359 907.076 291.112 909.766 303.49C910.476 308.024 914.645 310.803 918.814 311.798C928.472 314.203 938.564 313.769 948.43 313.277C953.574 312.607 959.842 312.262 963.075 307.541C966.524 301.903 966.032 294.975 965.765 288.648H989.842C989.744 298.641 989.566 308.97 985.94 318.431C983.969 323.379 980.204 327.577 975.099 329.469C965.273 333.412 954.402 333.658 944.083 334.397C932 334.594 919.76 334.298 907.943 331.49C901.015 329.686 893.455 326.503 890.233 319.624C886.133 310.517 885.384 300.386 884.319 290.589L883.186 251.709C883.807 241.213 884.763 230.145 890.43 220.999C893.446 215.904 898.728 212.721 904.228 210.848L904.208 210.622ZM993.647 206.955L1018.5 207.074L1043.56 283.513L1052.23 313.198L1061.84 281.108L1085.9 207.064L1110.48 206.916V209.626L1070.67 332.978C1058.35 333.224 1046.03 333.274 1033.71 332.958L993.657 206.965L993.647 206.955Z" fill="white"/>
</svg>
