<svg width="137" height="19" viewBox="0 0 137 19" fill="none" xmlns="http://www.w3.org/2000/svg">
<path d="M3.90003 18H0.252031V0.407999H8.46003C9.53203 0.407999 10.468 0.639999 11.268 1.104C12.068 1.568 12.676 2.224 13.092 3.072C13.524 3.904 13.74 4.864 13.74 5.952C13.74 7.056 13.524 8.024 13.092 8.856C12.676 9.688 12.068 10.336 11.268 10.8C10.468 11.264 9.53203 11.496 8.46003 11.496H3.90003V18ZM3.90003 3.576V8.328H8.05203C8.64403 8.328 9.10803 8.176 9.44403 7.872C9.79603 7.552 9.97203 7.096 9.97203 6.504V5.4C9.97203 4.808 9.79603 4.36 9.44403 4.056C9.10803 3.736 8.64403 3.576 8.05203 3.576H3.90003ZM23.7148 18.312C22.1468 18.312 20.7868 17.968 19.6348 17.28C18.4828 16.576 17.5868 15.544 16.9468 14.184C16.3228 12.824 16.0108 11.168 16.0108 9.216C16.0108 7.264 16.3228 5.608 16.9468 4.248C17.5868 2.872 18.4828 1.84 19.6348 1.152C20.7868 0.447999 22.1468 0.0959988 23.7148 0.0959988C25.2668 0.0959988 26.6188 0.447999 27.7708 1.152C28.9228 1.84 29.8108 2.872 30.4348 4.248C31.0748 5.608 31.3948 7.264 31.3948 9.216C31.3948 11.168 31.0748 12.824 30.4348 14.184C29.8108 15.544 28.9228 16.576 27.7708 17.28C26.6188 17.968 25.2668 18.312 23.7148 18.312ZM23.7148 15.072C24.8828 15.072 25.8108 14.672 26.4988 13.872C27.1868 13.072 27.5308 11.96 27.5308 10.536V7.872C27.5308 6.448 27.1868 5.336 26.4988 4.536C25.8108 3.736 24.8828 3.336 23.7148 3.336C22.5148 3.336 21.5708 3.736 20.8828 4.536C20.2108 5.336 19.8748 6.448 19.8748 7.872V10.536C19.8748 11.96 20.2108 13.072 20.8828 13.872C21.5708 14.672 22.5148 15.072 23.7148 15.072ZM38.3314 11.424V18H34.6834V0.407999H42.8674C43.9394 0.407999 44.8674 0.639999 45.6514 1.104C46.4514 1.568 47.0594 2.216 47.4754 3.048C47.9074 3.88 48.1234 4.848 48.1234 5.952C48.1234 7.184 47.8514 8.24 47.3074 9.12C46.7634 9.984 45.9634 10.608 44.9074 10.992L48.4114 18H44.3554L41.2114 11.424H38.3314ZM42.4354 8.352C43.0274 8.352 43.4914 8.2 43.8274 7.896C44.1794 7.576 44.3554 7.112 44.3554 6.504V5.4C44.3554 4.808 44.1794 4.36 43.8274 4.056C43.4914 3.736 43.0274 3.576 42.4354 3.576H38.3314V8.352H42.4354ZM63.0439 0.407999V3.648H58.1719V18H54.5239V3.648H49.6519V0.407999H63.0439ZM69.3392 10.704V18H65.6912V0.407999H77.2112V3.648H69.3392V7.488H76.1072V10.704H69.3392ZM86.6445 18.312C85.0765 18.312 83.7165 17.968 82.5645 17.28C81.4125 16.576 80.5165 15.544 79.8765 14.184C79.2525 12.824 78.9405 11.168 78.9405 9.216C78.9405 7.264 79.2525 5.608 79.8765 4.248C80.5165 2.872 81.4125 1.84 82.5645 1.152C83.7165 0.447999 85.0765 0.0959988 86.6445 0.0959988C88.1965 0.0959988 89.5485 0.447999 90.7005 1.152C91.8525 1.84 92.7405 2.872 93.3645 4.248C94.0045 5.608 94.3245 7.264 94.3245 9.216C94.3245 11.168 94.0045 12.824 93.3645 14.184C92.7405 15.544 91.8525 16.576 90.7005 17.28C89.5485 17.968 88.1965 18.312 86.6445 18.312ZM86.6445 15.072C87.8125 15.072 88.7405 14.672 89.4285 13.872C90.1165 13.072 90.4605 11.96 90.4605 10.536V7.872C90.4605 6.448 90.1165 5.336 89.4285 4.536C88.7405 3.736 87.8125 3.336 86.6445 3.336C85.4445 3.336 84.5005 3.736 83.8125 4.536C83.1405 5.336 82.8045 6.448 82.8045 7.872V10.536C82.8045 11.96 83.1405 13.072 83.8125 13.872C84.5005 14.672 85.4445 15.072 86.6445 15.072ZM107.981 14.76V18H97.6131V0.407999H101.261V14.76H107.981ZM118.391 18H110.183V15.096H112.463V3.312H110.183V0.407999H118.391V3.312H116.111V15.096H118.391V18ZM128.691 18.312C127.123 18.312 125.763 17.968 124.611 17.28C123.459 16.576 122.563 15.544 121.923 14.184C121.299 12.824 120.987 11.168 120.987 9.216C120.987 7.264 121.299 5.608 121.923 4.248C122.563 2.872 123.459 1.84 124.611 1.152C125.763 0.447999 127.123 0.0959988 128.691 0.0959988C130.243 0.0959988 131.595 0.447999 132.747 1.152C133.899 1.84 134.787 2.872 135.411 4.248C136.051 5.608 136.371 7.264 136.371 9.216C136.371 11.168 136.051 12.824 135.411 14.184C134.787 15.544 133.899 16.576 132.747 17.28C131.595 17.968 130.243 18.312 128.691 18.312ZM128.691 15.072C129.859 15.072 130.787 14.672 131.475 13.872C132.163 13.072 132.507 11.96 132.507 10.536V7.872C132.507 6.448 132.163 5.336 131.475 4.536C130.787 3.736 129.859 3.336 128.691 3.336C127.491 3.336 126.547 3.736 125.859 4.536C125.187 5.336 124.851 6.448 124.851 7.872V10.536C124.851 11.96 125.187 13.072 125.859 13.872C126.547 14.672 127.491 15.072 128.691 15.072Z" fill="white"/>
</svg>
